<svg xmlns="http://www.w3.org/2000/svg" viewBox="0 15 66.8499984741211 35" data-asc="1" width="66.8499984741211" height="35"><defs/><g fill="#0c184b"><g transform="translate(0, 0)"><path d="M6.15 15L23.80 15Q28.25 15 30.85 17.10Q33.45 19.20 33.45 22.75Q33.45 23.60 33.30 24.50L32.50 29.15Q31.70 33.80 28.68 36.38Q25.65 38.95 20.80 38.95L8.85 38.95L6.90 50L0 50L6.15 15M20.95 32.95Q22.80 32.95 24.03 31.88Q25.25 30.80 25.60 28.85L26.40 24.80Q26.50 24.20 26.50 23.90Q26.50 22.55 25.68 21.77Q24.85 21 23.45 21L12 21L9.90 32.95L20.95 32.95ZM37.45 50Q35.55 50 34.45 48.98Q33.35 47.95 33.35 46.25Q33.35 46 33.45 45.30L38.80 15L54.65 15Q60.30 15 63.58 17.70Q66.85 20.40 66.85 24.95Q66.85 25.60 66.65 27.10L65 36.90Q63.90 43.35 60.15 46.67Q56.40 50 50.25 50L37.45 50M50.35 43.90Q56.80 43.90 58.10 36.60L59.75 27.40Q59.85 26.95 59.85 26.10Q59.85 23.80 58.30 22.45Q56.75 21.10 54.15 21.10L44.60 21.10L40.60 43.90L50.35 43.90Z"/></g></g></svg>